<?xml version="1.0" encoding="UTF-8"?>
<svg xmlns="http://www.w3.org/2000/svg" xmlns:xlink="http://www.w3.org/1999/xlink" width="50px" height="50px" viewBox="0 0 50 50" version="1.1">
<defs>
<filter id="alpha" filterUnits="objectBoundingBox" x="0%" y="0%" width="100%" height="100%">
  <feColorMatrix type="matrix" in="SourceGraphic" values="0 0 0 0 1 0 0 0 0 1 0 0 0 0 1 0 0 0 1 0"/>
</filter>
<mask id="mask0">
  <g filter="url(#alpha)">
<rect x="0" y="0" width="50" height="50" style="fill:rgb(0%,0%,0%);fill-opacity:0.109804;stroke:none;"/>
  </g>
</mask>
<clipPath id="clip1">
  <rect x="0" y="0" width="50" height="50"/>
</clipPath>
<g id="surface5" clip-path="url(#clip1)">
<path style=" stroke:none;fill-rule:evenodd;fill:rgb(0%,0%,0%);fill-opacity:1;" d="M 31.6875 31.359375 L 31.6875 33.972656 C 27.859375 38.445312 20.542969 37.8125 18.902344 31.210938 Z M 31.6875 31.359375 "/>
</g>
</defs>
<g id="surface1">
<path style=" stroke:none;fill-rule:nonzero;fill:rgb(34.509804%,69.019608%,87.843137%);fill-opacity:1;" d="M 50 25 C 50 38.808594 38.808594 50 25 50 C 11.191406 50 0 38.808594 0 25 C 0 11.191406 11.191406 0 25 0 C 38.808594 0 50 11.191406 50 25 Z M 50 25 "/>
<path style=" stroke:none;fill-rule:evenodd;fill:rgb(97.647059%,86.27451%,64.313725%);fill-opacity:1;" d="M 18.816406 31.292969 L 31.683594 31.390625 L 31.683594 41.84375 L 18.816406 41.746094 Z M 18.816406 31.292969 "/>
<path style=" stroke:none;fill-rule:evenodd;fill:rgb(90.196078%,90.196078%,90.196078%);fill-opacity:1;" d="M 35.574219 47.65625 C 28.957031 50.742188 21.320312 50.78125 14.667969 47.769531 L 14.667969 39.171875 L 35.574219 39.171875 Z M 35.574219 47.65625 "/>
<path style=" stroke:none;fill-rule:evenodd;fill:rgb(91.372549%,34.117647%,24.313725%);fill-opacity:1;" d="M 27.023438 49.917969 C 26.355469 49.972656 25.683594 50 25 50 C 24.484375 50 23.972656 49.984375 23.46875 49.953125 L 24.300781 42.683594 L 26.25 42.683594 Z M 27.023438 49.917969 "/>
<path style=" stroke:none;fill-rule:evenodd;fill:rgb(40.392157%,43.921569%,47.45098%);fill-opacity:1;" d="M 20.757812 49.621094 C 18 49.109375 15.339844 48.175781 12.863281 46.859375 C 10.484375 45.539062 8.339844 43.835938 6.507812 41.824219 L 7.546875 39.316406 L 18.8125 34.289062 C 18.8125 38.507812 20.195312 45.199219 20.757812 49.621094 Z M 20.757812 49.621094 "/>
<use xlink:href="#surface5" mask="url(#mask0)"/>
<path style=" stroke:none;fill-rule:evenodd;fill:rgb(100%,90.980392%,74.509804%);fill-opacity:1;" d="M 25.183594 6.820312 C 42.402344 6.820312 35.691406 35.355469 25.183594 35.355469 C 15.261719 35.355469 7.96875 6.820312 25.183594 6.820312 Z M 25.183594 6.820312 "/>
<path style=" stroke:none;fill-rule:evenodd;fill:rgb(97.647059%,86.27451%,64.313725%);fill-opacity:1;" d="M 14.859375 19.453125 C 12.375 20.539062 14.484375 25.671875 16.050781 25.652344 C 15.402344 23.640625 15 21.558594 14.859375 19.453125 Z M 14.859375 19.453125 "/>
<path style=" stroke:none;fill-rule:evenodd;fill:rgb(97.647059%,86.27451%,64.313725%);fill-opacity:1;" d="M 35.710938 19.453125 C 38.195312 20.539062 36.085938 25.671875 34.523438 25.648438 C 35.167969 23.640625 35.570312 21.558594 35.710938 19.453125 Z M 35.710938 19.453125 "/>
<path style=" stroke:none;fill-rule:evenodd;fill:rgb(27.45098%,26.666667%,28.627451%);fill-opacity:1;" d="M 17.742188 11.59375 C 15.046875 14.390625 15.996094 22.132812 15.996094 22.132812 L 15.144531 21.734375 C 9.84375 1.1875 40.738281 1.1875 35.40625 21.734375 L 34.558594 22.132812 C 34.558594 22.132812 35.507812 14.390625 32.808594 11.59375 C 29.476562 14.824219 21.058594 14.808594 17.742188 11.59375 Z M 17.742188 11.59375 "/>
<path style=" stroke:none;fill-rule:evenodd;fill:rgb(40.392157%,43.921569%,47.45098%);fill-opacity:1;" d="M 29.746094 49.550781 C 35.214844 48.492188 40.171875 45.640625 43.832031 41.445312 L 42.949219 39.316406 L 31.683594 34.289062 C 31.683594 38.507812 30.308594 45.125 29.746094 49.550781 Z M 29.746094 49.550781 "/>
<path style=" stroke:none;fill-rule:evenodd;fill:rgb(100%,100%,100%);fill-opacity:1;" d="M 31.683594 33.964844 L 25.273438 39.195312 L 30.589844 43.980469 C 30.589844 43.980469 32.007812 36.128906 31.683594 33.964844 Z M 31.683594 33.964844 "/>
<path style=" stroke:none;fill-rule:evenodd;fill:rgb(100%,100%,100%);fill-opacity:1;" d="M 18.8125 33.964844 L 25.277344 39.195312 L 19.902344 43.980469 C 19.902344 43.980469 18.488281 36.128906 18.8125 33.964844 Z M 18.8125 33.964844 "/>
<path style=" stroke:none;fill-rule:evenodd;fill:rgb(91.372549%,34.117647%,24.313725%);fill-opacity:1;" d="M 22.742188 41.445312 L 25.28125 39.164062 L 27.816406 41.445312 L 25.28125 43.726562 Z M 22.742188 41.445312 "/>
<path style=" stroke:none;fill-rule:evenodd;fill:rgb(26.27451%,28.627451%,33.333333%);fill-opacity:1;" d="M 20.847656 49.65625 C 19.8125 49.480469 18.792969 49.242188 17.789062 48.941406 C 17.757812 48.917969 17.726562 48.894531 17.699219 48.867188 L 14.835938 43.699219 L 18.511719 41.058594 L 14.667969 41.058594 L 15.488281 35.515625 L 18.816406 33.414062 C 18.957031 39.378906 20.238281 46.082031 20.847656 49.65625 Z M 20.847656 49.65625 "/>
<path style=" stroke:none;fill-rule:evenodd;fill:rgb(26.27451%,28.627451%,33.333333%);fill-opacity:1;" d="M 29.648438 49.566406 C 30.125 49.488281 30.59375 49.378906 31.0625 49.257812 C 31.613281 49.113281 32.160156 48.953125 32.707031 48.789062 L 32.816406 48.753906 L 35.65625 43.644531 L 31.980469 41.023438 L 35.828125 41.023438 L 35.003906 35.507812 L 31.679688 33.414062 C 31.535156 39.347656 30.257812 46.011719 29.648438 49.566406 Z M 29.648438 49.566406 "/>
</g>
</svg>
